# xmcd
#
# Track frame offsets:
#       150
#       18385
#       31435
#       41615
#       61877
#       74315
#       86900
#       99820
#       112432
#       123655
#       137335
#       152217
#       164525
#       178837
#       197160
#       208762
#       218872
#
# Disc length: 3140 seconds
#
# Revision: 1
# Processed by: cddbd v1.4PL0 Copyright (c) Steve Scherf et al.
# Submitted via: MusiCat 1.1
#
DISCID=fe0c4211
DTITLE=Various Artist - Romantic Hits Forever
DYEAR=1900
DGENRE=
TTITLE0=Whiter Shade Of Pale
TTITLE1=When a Man Loves a Woman
TTITLE2=Love Letters In The Sand
TTITLE3=My Way
TTITLE4=The Impossible Dream
TTITLE5=Crying
TTITLE6=Ti Voglio Tanto Bene
TTITLE7=Twilight Time
TTITLE8=See You In September
TTITLE9=My Special Angel
TTITLE10=Always On My Mind
TTITLE11=Red Roses For a Blue Lady
TTITLE12=Cry
TTITLE13=Rock and Roll Lullaby
TTITLE14=Smoke Gets In Your Eyes
TTITLE15=Love Story
TTITLE16=Dolannes Melodie
EXTD=0\n\n\n
EXTT0=
EXTT1=
EXTT2=
EXTT3=
EXTT4=
EXTT5=
EXTT6=
EXTT7=
EXTT8=
EXTT9=
EXTT10=
EXTT11=
EXTT12=
EXTT13=
EXTT14=
EXTT15=
EXTT16=
PLAYORDER=
